# xmcd
#
# Track frame offsets: 
#        150
#        10875
#        24593
#        38086
#        66454
#        76241
#        90322
#        101359
#        112171
#        122496
#        132883
#        146745
#        156713
#        169194
#
# Disc length: 2431 seconds
#
# Revision: 0
# Processed by: cddbd v1.5.2PL0 Copyright (c) Steve Scherf et al.
# Submitted via: ExactAudioCopy v1.0b3
#
DISCID=b9097d0e
DTITLE=Various Artist - Compilation - Blues Essentials De Luxe cd2 - Legends 
DTITLE=of Blues
DYEAR=2013
DGENRE=Blues
TTITLE0=B.B.King - Recession Blues
TTITLE1=Willie Dixon - Walking The Blues
TTITLE2=Albert King - Bad Luck Blues
TTITLE3=Buddy Guy - First Time I Met The Blues
TTITLE4=John Mayall and The Heartbreakers - I´m Your Witch Doctor
TTITLE5=Ray Charles - Blues Is My Middle Name
TTITLE6=John Lee Hooker - Baby, Please Don´t Go
TTITLE7=Muddy Waters - Key To The Highway
TTITLE8=Howlin´ Wolf - Somebody In My Home
TTITLE9=Sonny Boy Williamson - Let Your Conscience Be Your Guide
TTITLE10=Bo Diddley - You Can´t Judge A Book By The Cover
TTITLE11=Otis Rush - I Can´t Stop Baby
TTITLE12=Lightning Hopkins - Life I Use To Live
TTITLE13=Robert Johnson - Ramblin´ On My Mind
EXTD=
EXTT0=
EXTT1=
EXTT2=
EXTT3=
EXTT4=
EXTT5=
EXTT6=
EXTT7=
EXTT8=
EXTT9=
EXTT10=
EXTT11=
EXTT12=
EXTT13=
PLAYORDER=
